# xmcd
#
# Track frame offsets:
#	150
#	19232
#	37157
#	55772
#	73265
#	94622
#	116560
#	133797
#	152355
#	177435
#	197827
#	216625
#	236470
#	252675
#	271522
#	290097
#	310842
#
# Disc length: 4386 seconds
#
# Revision: 0
# Processed by: cddbd v1.5.1PL0 Copyright (c) Steve Scherf et al.
# Submitted via: dBpowerAMP V4.0
#
DISCID=04112011
DTITLE=Dru Hill - Hits
DYEAR=2005
DGENRE=R and B
TTITLE0=Tell Me
TTITLE1=In My Bed - (Radio Edit)
TTITLE2=Never Make A Promise - (Radio Edit)
TTITLE3=Big Bad Mama - (Radio Edit, with Foxy Brown)
TTITLE4=5 Steps - (Radio Edit)
TTITLE5=We're Not Making Love No More
TTITLE6=How Deep Is Your Love - (with Redman)
TTITLE7=These Are The Times
TTITLE8=The Love We Had (Stays On My Mind)
TTITLE9=Beauty
TTITLE10=You Are Everything - (Radio Edit)
TTITLE11=I Should Be... - (Radio Edit)
TTITLE12=No Doubt (Work It) - (Radio Edit)
TTITLE13=I Love You - (Radio Edit)
TTITLE14=Thong Song - (Bonus Track/Radio Edit, with Sisqo)
TTITLE15=Incomplete - (Bonus Track, with Sisqo)
TTITLE16=In My Bed - (So So Def remix, previously unreleased, Bonus Track)
EXTD=
EXTT0=
EXTT1=
EXTT2=
EXTT3=
EXTT4=
EXTT5=
EXTT6=
EXTT7=
EXTT8=
EXTT9=
EXTT10=
EXTT11=
EXTT12=
EXTT13=
EXTT14=
EXTT15=
EXTT16=
PLAYORDER=
